<svg width="108" height="45" viewBox="0 0 108 45" fill="none" xmlns="http://www.w3.org/2000/svg">
<path d="M4 24.027C4 31.1918 8.92487 37 15 37C21.0751 37 26 31.1918 26 24.027C26 16.8623 10.0751 10 4 10C8.8125 18.5135 4 16.8623 4 24.027Z" fill="url(#paint0_linear_0_1)"/>
<path d="M5.74707 11.1572C6.42293 12.5235 6.82547 13.6309 7.01172 14.584C7.27781 15.9456 7.09725 16.9537 6.73633 17.8818C6.05034 19.6458 5 20.6951 5 24.0273C5.00014 30.8007 9.62555 36 15 36C20.3745 36 24.9999 30.8007 25 24.0273C25 22.6098 24.205 21.0744 22.6963 19.5059C21.2021 17.9524 19.1142 16.4801 16.7959 15.2031C14.4839 13.9296 11.9829 12.8721 9.69434 12.1357C8.23265 11.6654 6.88559 11.3362 5.74707 11.1572Z" stroke="url(#paint1_linear_0_1)" stroke-opacity="0.25" stroke-width="2"/>
<path d="M36 24.7347C36 31.7532 31.0751 36 25 36C18.9248 36 14 30.3103 14 23.2918C14 16.2732 29.4249 11.5 35.5 11.5C30.6875 19.8398 36 17.7161 36 24.7347Z" fill="url(#paint2_linear_0_1)"/>
<path d="M33.7636 12.6084C33.0953 13.9428 32.7131 15.0173 32.5615 15.9365C32.3416 17.2692 32.6136 18.2236 33.0595 19.0762C33.2636 19.4662 33.513 19.8505 33.7236 20.1895C33.9439 20.5441 34.1518 20.8951 34.3369 21.2969C34.6974 22.0797 34.9999 23.1197 35 24.7344C35 27.9992 33.86 30.5494 32.08 32.2832C30.2942 34.0226 27.803 35 25 35C19.6078 35 15.0001 29.8985 15 23.292C15 21.9264 15.7496 20.5583 17.1865 19.2207C18.6173 17.8888 20.6274 16.6877 22.8808 15.6768C26.5982 14.0091 30.797 12.9373 33.7636 12.6084Z" stroke="url(#paint3_linear_0_1)" stroke-opacity="0.25" stroke-width="2"/>
<g filter="url(#filter0_d_0_1)">
<path d="M36 25C36 33.8366 28.8366 41 20 41C11.1635 41 4.00003 33.8366 4.00003 25C4.00003 16.1634 19.1634 4 28 4C21 14.5 36 16.1634 36 25Z" fill="url(#paint4_linear_0_1)"/>
<path d="M26.166 5.1709C25.1526 7.21954 24.9267 9.03175 25.3242 10.7002C25.8158 12.7629 27.2158 14.4001 28.6729 15.8359C30.203 17.3437 31.738 18.5904 32.9961 20.1064C34.2068 21.5653 35 23.1067 35 25C35 33.2843 28.2843 40 20 40C11.7158 40 5.00003 33.2843 5.00003 25C5.00003 23.0622 5.83895 20.8373 7.34378 18.5381C8.83964 16.2526 10.941 13.974 13.3321 11.9492C15.7218 9.92558 18.3756 8.17817 20.9551 6.94043C22.8013 6.0546 24.575 5.44759 26.166 5.1709Z" stroke="url(#paint5_linear_0_1)" stroke-opacity="0.25" stroke-width="2"/>
</g>
<g filter="url(#filter1_i_0_1)">
<rect x="18" y="18" width="4" height="4" rx="1" fill="#8E452F"/>
<rect x="14" y="28" width="4" height="4" rx="1" fill="#8E452F"/>
<rect x="22" y="28" width="4" height="4" rx="1" fill="#8E452F"/>
<path d="M20 22V24C20 24.5523 19.5523 25 19 25H17C16.4477 25 16 25.4477 16 26V29" stroke="#8E452F"/>
<path d="M20 22V24C20 24.5523 20.4477 25 21 25H23C23.5523 25 24 25.4477 24 26V29" stroke="#8E452F"/>
</g>
<path d="M19 25H21" stroke="#683322"/>
<path d="M40.5448 38V21.2H43.5928V27.488C44.0088 26.928 44.5608 26.512 45.2488 26.24C45.9528 25.952 46.6568 25.808 47.3608 25.808C48.7368 25.808 49.8648 26.256 50.7448 27.152C51.6248 28.032 52.0648 29.312 52.0648 30.992V38H49.0168V31.4C49.0168 30.504 48.7848 29.784 48.3208 29.24C47.8728 28.68 47.2088 28.4 46.3288 28.4C45.4488 28.4 44.7688 28.68 44.2888 29.24C43.8248 29.784 43.5928 30.504 43.5928 31.4V38H40.5448ZM59.7094 38.288C58.4614 38.288 57.3814 38.016 56.4694 37.472C55.5734 36.928 54.8774 36.184 54.3814 35.24C53.8854 34.296 53.6374 33.232 53.6374 32.048C53.6374 30.784 53.8934 29.688 54.4054 28.76C54.9174 27.832 55.6294 27.112 56.5414 26.6C57.4534 26.072 58.5094 25.808 59.7094 25.808C60.8934 25.808 61.9254 26.064 62.8054 26.576C63.7014 27.088 64.3974 27.792 64.8934 28.688C65.4054 29.584 65.6614 30.616 65.6614 31.784C65.6614 31.992 65.6534 32.2 65.6374 32.408C65.6214 32.6 65.5974 32.784 65.5654 32.96H56.7334C56.7814 33.52 56.9254 34.016 57.1654 34.448C57.4214 34.864 57.7574 35.192 58.1734 35.432C58.6054 35.656 59.0934 35.768 59.6374 35.768C60.1974 35.768 60.6774 35.648 61.0774 35.408C61.4934 35.168 61.8214 34.8 62.0614 34.304H65.3494C65.1254 35.008 64.7654 35.664 64.2694 36.272C63.7734 36.88 63.1414 37.368 62.3734 37.736C61.6214 38.104 60.7334 38.288 59.7094 38.288ZM56.7574 30.92H62.4934C62.4774 30.12 62.1814 29.488 61.6054 29.024C61.0454 28.56 60.3814 28.328 59.6134 28.328C58.9574 28.328 58.3494 28.536 57.7894 28.952C57.2294 29.352 56.8854 30.008 56.7574 30.92ZM67.287 38V21.2H70.359V38H67.287ZM72.537 38V21.2H75.609V38H72.537ZM78.243 38V21.2H83.979C85.979 21.2 87.611 21.552 88.875 22.256C90.155 22.96 91.091 23.944 91.683 25.208C92.291 26.472 92.595 27.936 92.595 29.6C92.595 31.392 92.259 32.92 91.587 34.184C90.931 35.432 89.963 36.384 88.683 37.04C87.403 37.68 85.835 38 83.979 38H78.243ZM81.315 35.36H83.835C85.259 35.36 86.379 35.128 87.195 34.664C88.011 34.2 88.587 33.536 88.923 32.672C89.275 31.808 89.451 30.784 89.451 29.6C89.451 27.6 88.987 26.136 88.059 25.208C87.147 24.28 85.739 23.816 83.835 23.816H81.315V35.36ZM95.118 38V21.2H101.478C103.222 21.2 104.55 21.592 105.462 22.376C106.39 23.144 106.854 24.16 106.854 25.424C106.854 26.352 106.63 27.112 106.182 27.704C105.734 28.28 105.174 28.712 104.502 29C105.062 29.208 105.574 29.52 106.038 29.936C106.518 30.352 106.902 30.848 107.19 31.424C107.478 31.984 107.622 32.6 107.622 33.272C107.622 34.152 107.406 34.952 106.974 35.672C106.542 36.392 105.918 36.96 105.102 37.376C104.286 37.792 103.286 38 102.102 38H95.118ZM98.19 35.384H101.814C102.726 35.384 103.398 35.176 103.83 34.76C104.278 34.344 104.502 33.744 104.502 32.96C104.502 32.176 104.27 31.576 103.806 31.16C103.342 30.744 102.662 30.536 101.766 30.536H98.19V35.384ZM98.19 27.92H101.214C102.078 27.92 102.71 27.752 103.11 27.416C103.51 27.064 103.71 26.544 103.71 25.856C103.71 25.2 103.51 24.696 103.11 24.344C102.726 23.992 102.078 23.816 101.166 23.816H98.19V27.92Z" fill="white"/>
<path d="M40.5448 38V21.2H43.5928V27.488C44.0088 26.928 44.5608 26.512 45.2488 26.24C45.9528 25.952 46.6568 25.808 47.3608 25.808C48.7368 25.808 49.8648 26.256 50.7448 27.152C51.6248 28.032 52.0648 29.312 52.0648 30.992V38H49.0168V31.4C49.0168 30.504 48.7848 29.784 48.3208 29.24C47.8728 28.68 47.2088 28.4 46.3288 28.4C45.4488 28.4 44.7688 28.68 44.2888 29.24C43.8248 29.784 43.5928 30.504 43.5928 31.4V38H40.5448ZM59.7094 38.288C58.4614 38.288 57.3814 38.016 56.4694 37.472C55.5734 36.928 54.8774 36.184 54.3814 35.24C53.8854 34.296 53.6374 33.232 53.6374 32.048C53.6374 30.784 53.8934 29.688 54.4054 28.76C54.9174 27.832 55.6294 27.112 56.5414 26.6C57.4534 26.072 58.5094 25.808 59.7094 25.808C60.8934 25.808 61.9254 26.064 62.8054 26.576C63.7014 27.088 64.3974 27.792 64.8934 28.688C65.4054 29.584 65.6614 30.616 65.6614 31.784C65.6614 31.992 65.6534 32.2 65.6374 32.408C65.6214 32.6 65.5974 32.784 65.5654 32.96H56.7334C56.7814 33.52 56.9254 34.016 57.1654 34.448C57.4214 34.864 57.7574 35.192 58.1734 35.432C58.6054 35.656 59.0934 35.768 59.6374 35.768C60.1974 35.768 60.6774 35.648 61.0774 35.408C61.4934 35.168 61.8214 34.8 62.0614 34.304H65.3494C65.1254 35.008 64.7654 35.664 64.2694 36.272C63.7734 36.88 63.1414 37.368 62.3734 37.736C61.6214 38.104 60.7334 38.288 59.7094 38.288ZM56.7574 30.92H62.4934C62.4774 30.12 62.1814 29.488 61.6054 29.024C61.0454 28.56 60.3814 28.328 59.6134 28.328C58.9574 28.328 58.3494 28.536 57.7894 28.952C57.2294 29.352 56.8854 30.008 56.7574 30.92ZM67.287 38V21.2H70.359V38H67.287ZM72.537 38V21.2H75.609V38H72.537ZM78.243 38V21.2H83.979C85.979 21.2 87.611 21.552 88.875 22.256C90.155 22.96 91.091 23.944 91.683 25.208C92.291 26.472 92.595 27.936 92.595 29.6C92.595 31.392 92.259 32.92 91.587 34.184C90.931 35.432 89.963 36.384 88.683 37.04C87.403 37.68 85.835 38 83.979 38H78.243ZM81.315 35.36H83.835C85.259 35.36 86.379 35.128 87.195 34.664C88.011 34.2 88.587 33.536 88.923 32.672C89.275 31.808 89.451 30.784 89.451 29.6C89.451 27.6 88.987 26.136 88.059 25.208C87.147 24.28 85.739 23.816 83.835 23.816H81.315V35.36ZM95.118 38V21.2H101.478C103.222 21.2 104.55 21.592 105.462 22.376C106.39 23.144 106.854 24.16 106.854 25.424C106.854 26.352 106.63 27.112 106.182 27.704C105.734 28.28 105.174 28.712 104.502 29C105.062 29.208 105.574 29.52 106.038 29.936C106.518 30.352 106.902 30.848 107.19 31.424C107.478 31.984 107.622 32.6 107.622 33.272C107.622 34.152 107.406 34.952 106.974 35.672C106.542 36.392 105.918 36.96 105.102 37.376C104.286 37.792 103.286 38 102.102 38H95.118ZM98.19 35.384H101.814C102.726 35.384 103.398 35.176 103.83 34.76C104.278 34.344 104.502 33.744 104.502 32.96C104.502 32.176 104.27 31.576 103.806 31.16C103.342 30.744 102.662 30.536 101.766 30.536H98.19V35.384ZM98.19 27.92H101.214C102.078 27.92 102.71 27.752 103.11 27.416C103.51 27.064 103.71 26.544 103.71 25.856C103.71 25.2 103.51 24.696 103.11 24.344C102.726 23.992 102.078 23.816 101.166 23.816H98.19V27.92Z" fill="url(#paint6_linear_0_1)" fill-opacity="0.5"/>
<defs>
<filter id="filter0_d_0_1" x="3.05176e-05" y="0" width="40" height="45" filterUnits="userSpaceOnUse" color-interpolation-filters="sRGB">
<feFlood flood-opacity="0" result="BackgroundImageFix"/>
<feColorMatrix in="SourceAlpha" type="matrix" values="0 0 0 0 0 0 0 0 0 0 0 0 0 0 0 0 0 0 127 0" result="hardAlpha"/>
<feOffset/>
<feGaussianBlur stdDeviation="2"/>
<feComposite in2="hardAlpha" operator="out"/>
<feColorMatrix type="matrix" values="0 0 0 0 0.254808 0 0 0 0 0.0735022 0 0 0 0 0.0735022 0 0 0 0.5 0"/>
<feBlend mode="normal" in2="BackgroundImageFix" result="effect1_dropShadow_0_1"/>
<feBlend mode="normal" in="SourceGraphic" in2="effect1_dropShadow_0_1" result="shape"/>
</filter>
<filter id="filter1_i_0_1" x="14" y="18" width="12" height="14" filterUnits="userSpaceOnUse" color-interpolation-filters="sRGB">
<feFlood flood-opacity="0" result="BackgroundImageFix"/>
<feBlend mode="normal" in="SourceGraphic" in2="BackgroundImageFix" result="shape"/>
<feColorMatrix in="SourceAlpha" type="matrix" values="0 0 0 0 0 0 0 0 0 0 0 0 0 0 0 0 0 0 127 0" result="hardAlpha"/>
<feOffset/>
<feGaussianBlur stdDeviation="1"/>
<feComposite in2="hardAlpha" operator="arithmetic" k2="-1" k3="1"/>
<feColorMatrix type="matrix" values="0 0 0 0 0 0 0 0 0 0 0 0 0 0 0 0 0 0 0.5 0"/>
<feBlend mode="normal" in2="shape" result="effect1_innerShadow_0_1"/>
</filter>
<linearGradient id="paint0_linear_0_1" x1="15" y1="7" x2="15" y2="37" gradientUnits="userSpaceOnUse">
<stop stop-color="#FF2D2D"/>
<stop offset="1" stop-color="#FFEA00"/>
</linearGradient>
<linearGradient id="paint1_linear_0_1" x1="15" y1="7" x2="15" y2="37" gradientUnits="userSpaceOnUse">
<stop stop-color="#FFEA00"/>
<stop offset="1" stop-color="#FF0000"/>
</linearGradient>
<linearGradient id="paint2_linear_0_1" x1="24.5" y1="6.62515" x2="24.5" y2="36.0129" gradientUnits="userSpaceOnUse">
<stop stop-color="#FF2D2D"/>
<stop offset="1" stop-color="#FFEA00"/>
</linearGradient>
<linearGradient id="paint3_linear_0_1" x1="24.5" y1="6.62515" x2="24.5" y2="36.0129" gradientUnits="userSpaceOnUse">
<stop stop-color="#FFEA00"/>
<stop offset="1" stop-color="#FF0000"/>
</linearGradient>
<linearGradient id="paint4_linear_0_1" x1="20" y1="4" x2="20" y2="41" gradientUnits="userSpaceOnUse">
<stop stop-color="#FF3F3F"/>
<stop offset="1" stop-color="#FFEA00"/>
</linearGradient>
<linearGradient id="paint5_linear_0_1" x1="20" y1="4" x2="20" y2="41" gradientUnits="userSpaceOnUse">
<stop stop-color="#FFEA00"/>
<stop offset="1" stop-color="#FF0000"/>
</linearGradient>
<linearGradient id="paint6_linear_0_1" x1="62.2264" y1="26" x2="81.0894" y2="40.2155" gradientUnits="userSpaceOnUse">
<stop stop-color="#FF2D2D"/>
<stop offset="1" stop-color="#FF9500"/>
</linearGradient>
</defs>
</svg>
